<?xml version="1.0" encoding="utf-8"?>
<!-- Generator: Adobe Illustrator 23.0.0, SVG Export Plug-In . SVG Version: 6.00 Build 0)  -->
<svg version="1.1" id="Layer_1" xmlns="http://www.w3.org/2000/svg" xmlns:xlink="http://www.w3.org/1999/xlink" x="0px" y="0px"
	 viewBox="0 0 50 50" style="enable-background:new 0 0 50 50;" xml:space="preserve">
<style type="text/css">
	.st0{fill:none;stroke:#FFFFFF;stroke-width:2;}
</style>
<g id="사각형_40" transform="translate(-377 979)">
	<path class="st0" d="M402-976L402-976c5.5,0,10,4.5,10,10v10c0,5.5-4.5,10-10,10l0,0c-5.5,0-10-4.5-10-10v-10
		C392-971.5,396.5-976,402-976z"/>
	<path class="st0" d="M402-975L402-975c5,0,9,4,9,9v10c0,5-4,9-9,9l0,0c-5,0-9-4-9-9v-10C393-971,397-975,402-975z"/>
</g>
</svg>
