<svg id="한국건강가정진흥원_ci" xmlns="http://www.w3.org/2000/svg" width="98.43" height="18.026">
    <defs>
        <style>
            .cls-1{fill:#62ba46}.cls-2{fill:#f4812a}.cls-3{fill:#231f20}.cls-4{fill:#808184}
        </style>
    </defs>
    <path id="패스_17" data-name="패스 17" class="cls-1" d="M121.648 233.354v9.7h8.329v-18.029h-18.03v8.329h9.7z" transform="translate(-111.947 -225.025)"/>
    <path id="사각형_36" data-name="사각형 36" class="cls-2" transform="translate(0 9.698)" d="M0 0h8.332v8.329H0z"/>
    <g id="그룹_28" data-name="그룹 28" transform="translate(22.82 .765)">
        <path id="패스_18" data-name="패스 18" class="cls-3" d="M183.051 230.652h1.256v1.019h-1.256v3.129H181.9v-6.887h1.147zm-4.97 3.652h1.155v1.986h3.953v1.01h-5.108zm1.6-3.059a1.066 1.066 0 1 0-1.055 1.207 1.2 1.2 0 0 0 1.055-1.207m-.423-2.528h2.024v.978h-1.235a2.136 2.136 0 0 1 .76 1.591 2.179 2.179 0 1 1-4.358 0 2.126 2.126 0 0 1 .751-1.591h-1.254v-.978h2.075v-1.051h1.236z" transform="translate(-175.947 -227.489)"/>
        <path id="패스_19" data-name="패스 19" class="cls-3" d="M205.546 232.756a12.245 12.245 0 0 0 .316-2.495h-3.944v-1.02h5.139a18.393 18.393 0 0 1-.366 3.515h1.948v.979h-3.489v1.365h1.977v3.372h-1.158v-2.382h-4.14v-.99h2.1v-1.361h-3.517v-.979z" transform="translate(-191.691 -228.503)"/>
        <path id="패스_20" data-name="패스 20" class="cls-1" d="M231.462 230.778v-2.414h1.145v6.887h-1.145v-3.463H229.8v-1.01zm-3.854 3.974h1.155v1.987h4.052v1.009h-5.207zm-1.473-.687-.662-.789a7.31 7.31 0 0 0 2.1-1.446 3.6 3.6 0 0 0 1.069-1.988h-2.707v-.987h4.1a5.834 5.834 0 0 1-1.1 3.088 6.5 6.5 0 0 1-2.806 2.123" transform="translate(-207.813 -227.938)"/>
        <path id="패스_21" data-name="패스 21" class="cls-1" d="M254.907 230.518h1.247v1.02h-1.247v2.36h-1.147v-5.5h1.147zm-1.245 5.609a1.109 1.109 0 0 0-1.057-1.167 1.132 1.132 0 0 0-1.078 1.167 1.11 1.11 0 0 0 1.049 1.145 1.149 1.149 0 0 0 1.086-1.145m1.147 0a2.2 2.2 0 1 1-2.2-2.176 2.181 2.181 0 0 1 2.2 2.176m-6.168-2.041-.66-.789a7.31 7.31 0 0 0 2.1-1.446 3.6 3.6 0 0 0 1.067-1.988h-2.707v-.987h4.1a5.858 5.858 0 0 1-1.1 3.088 6.515 6.515 0 0 1-2.809 2.123" transform="translate(-222.296 -227.959)"/>
        <path id="패스_22" data-name="패스 22" class="cls-2" d="M278.814 231.12h1.252v.989h-1.252v4.39h-1.139v-8.073h1.139zm-6.138 3.36-.752-.77a6.95 6.95 0 0 0 2.165-1.53 3.84 3.84 0 0 0 1.107-2.225h-2.667v-1.009h3.961a6.146 6.146 0 0 1-1.067 3.328 6.706 6.706 0 0 1-2.747 2.206" transform="translate(-237.702 -227.978)"/>
        <path id="패스_23" data-name="패스 23" class="cls-2" d="M302.168 230.469v-2.1h1.147v5.711h-1.147v-2.643h-1.691v-.966zm-1.285 6.782a1.145 1.145 0 0 0 1.085-1.143 1.107 1.107 0 0 0-1.055-1.167 1.132 1.132 0 0 0-1.077 1.167 1.108 1.108 0 0 0 1.048 1.143m2.235-1.143a2.206 2.206 0 1 1-2.205-2.175 2.183 2.183 0 0 1 2.205 2.175m-5.071-6.337h-1.581v-.987h4.378v.987h-1.582v.271a2.563 2.563 0 0 0 .564 1.571 4.888 4.888 0 0 0 1.413 1.082l-.583.811a5.64 5.64 0 0 1-1.2-.749 3.9 3.9 0 0 1-.762-.833 3.53 3.53 0 0 1-.671.853 5.661 5.661 0 0 1-1.242.957l-.743-.791a4.255 4.255 0 0 0 1.461-1.27 2.975 2.975 0 0 0 .545-1.611z" transform="translate(-253.22 -227.94)"/>
        <path id="패스_24" data-name="패스 24" class="cls-3" d="M325.556 228.367h1.144v6.856h-1.143zm-3.856 6.376h1.158v2h4.051v1.009H321.7zm-.215-4.973H319.9v-.987h4.378v.987H322.7v.365a2.848 2.848 0 0 0 .544 1.622 5.41 5.41 0 0 0 1.442 1.165l-.594.833a4.511 4.511 0 0 1-1.2-.811 5.443 5.443 0 0 1-.761-.872 3.31 3.31 0 0 1-.651.872 5.1 5.1 0 0 1-1.266 1.05l-.73-.8a5.141 5.141 0 0 0 1.491-1.4 3.26 3.26 0 0 0 .506-1.643z" transform="translate(-268.307 -227.94)"/>
        <path id="패스_25" data-name="패스 25" class="cls-3" d="M346.815 229.947a.973.973 0 1 0-.978.978.968.968 0 0 0 .978-.978m-.957 6.618a1.079 1.079 0 0 0 1.105-1.051 1.057 1.057 0 0 0-1.076-1.042 1.079 1.079 0 0 0-1.107 1.042 1.054 1.054 0 0 0 1.078 1.051m.029-3.029a1.993 1.993 0 1 1-2.243 1.978 2.137 2.137 0 0 1 2.243-1.978m.572-5.522h2.241v.934h-1.117a1.444 1.444 0 0 1 .4 1 2.157 2.157 0 0 1-4.279 0 1.526 1.526 0 0 1 .375-1h-1.108v-.934h2.253v-.843h1.235zm-4.742 4.171H350v.947h-8.28z" transform="translate(-282.61 -227.17)"/>
        <path id="패스_26" data-name="패스 26" class="cls-3" d="M372.912 234.753h-1.856v-.9h1.856v-5.473h1.146v7.147h-1.146zm-3.99.479h1.155v1.508h4.041v1.009h-5.2zm1.61-4.784a1.011 1.011 0 1 0-1.008 1.08 1.1 1.1 0 0 0 1.008-1.08m-3.2 0a2.2 2.2 0 1 1 2.2 2.005 2.152 2.152 0 0 1-2.2-2.005m1.582 3.173h-.258l-2 .01v-.948h1.649c1.2 0 3.431-.146 4.283-.249v.925c-.514.072-1.514.145-2.5.22v1.258h-1.177z" transform="translate(-298.657 -227.94)"/>
        <path id="패스_27" data-name="패스 27" class="cls-4" d="M176.685 263.182h.369v1.567h.014c.075-.125.153-.24.224-.348l.871-1.219h.457l-1.033 1.38 1.114 1.871h-.436l-.935-1.6-.276.357v1.239h-.369z" transform="translate(-176.422 -250.342)"/>
        <path id="패스_28" data-name="패스 28" class="cls-4" d="M183.8 266.048c.587 0 .916-.612.916-1.351 0-.646-.3-1.322-.911-1.322s-.918.651-.918 1.357c0 .684.33 1.315.91 1.315zm-.016.344c-.756 0-1.281-.666-1.281-1.65 0-1.034.558-1.708 1.32-1.708.782 0 1.286.68 1.286 1.645 0 1.115-.6 1.714-1.322 1.714z" transform="translate(-180.167 -250.246)"/>
        <path id="패스_29" data-name="패스 29" class="cls-4" d="M191.644 264.666h.377a.592.592 0 0 0 .642-.618c0-.421-.265-.6-.656-.6a1.367 1.367 0 0 0-.364.04zm-.368-1.477a3.318 3.318 0 0 1 .707-.071 1.093 1.093 0 0 1 .83.269.876.876 0 0 1 .224.618.849.849 0 0 1-.538.825v.015a.823.823 0 0 1 .419.657 6.7 6.7 0 0 0 .215.891h-.38a4.36 4.36 0 0 1-.185-.776c-.085-.45-.242-.62-.576-.632h-.347v1.408h-.368z" transform="translate(-185.81 -250.3)"/>
    </g>
    <path id="패스_30" data-name="패스 30" class="cls-4" d="M199.241 264.907h-1.1v1.173h1.236v.351h-1.61v-3.252h1.545v.353h-1.171v1.029h1.1z" transform="translate(-167.165 -249.575)"/>
    <g id="그룹_29" data-name="그룹 29" transform="translate(32.512 13.605)">
        <path id="패스_31" data-name="패스 31" class="cls-4" d="m204.743 265.083-.284-.936c-.059-.212-.1-.4-.144-.593h-.015a7.091 7.091 0 0 1-.139.588l-.28.941zm-.936.328-.3 1.022h-.38l.969-3.251h.445l.972 3.251h-.393l-.306-1.022z" transform="translate(-203.13 -263.182)"/>
        <path id="패스_32" data-name="패스 32" class="cls-4" d="M211.117 266.434v-3.252h.406l.912 1.645a9.443 9.443 0 0 1 .506 1.056h.011c-.031-.433-.039-.83-.039-1.33v-1.366h.345v3.252h-.372l-.9-1.65a9.364 9.364 0 0 1-.53-1.086l-.014.005c.022.41.025.8.025 1.342v1.389z" transform="translate(-208.269 -263.182)"/>
    </g>
    <path id="사각형_37" data-name="사각형 37" class="cls-4" transform="translate(39.546 13.606)" d="M0 0h.373v3.251H0z"/>
    <g id="그룹_30" data-name="그룹 30" transform="translate(40.603 13.553)">
        <path id="패스_33" data-name="패스 33" class="cls-4" d="M225.821 266.434v-3.252h.406l.911 1.645a8.747 8.747 0 0 1 .507 1.056h.014c-.035-.433-.044-.83-.044-1.33v-1.366h.347v3.252h-.372l-.905-1.65a9.4 9.4 0 0 1-.528-1.086l-.014.005c.023.41.026.8.026 1.342v1.389z" transform="translate(-225.821 -263.13)"/>
        <path id="패스_34" data-name="패스 34" class="cls-4" d="M233.446 265.829a1.131 1.131 0 0 0 .654.212.536.536 0 0 0 .6-.554c0-.3-.153-.477-.538-.643-.465-.191-.754-.471-.754-.925a.866.866 0 0 1 .922-.881 1.165 1.165 0 0 1 .628.157l-.1.344a.945.945 0 0 0-.538-.154.485.485 0 0 0-.537.487c0 .3.173.453.567.626.483.219.725.48.725.956a.909.909 0 0 1-1 .942 1.327 1.327 0 0 1-.726-.213z" transform="translate(-230.665 -263.037)"/>
    </g>
    <path id="패스_35" data-name="패스 35" class="cls-4" d="M239.674 263.538h-.866v-.356h2.11v.356h-.87v2.9h-.374z" transform="translate(-193.574 -249.577)"/>
    <path id="사각형_38" data-name="사각형 38" class="cls-4" transform="translate(47.699 13.606)" d="M0 0h.374v3.251H0z"/>
    <path id="패스_36" data-name="패스 36" class="cls-4" d="M248.647 263.538h-.867v-.356h2.111v.356h-.87v2.9h-.374z" transform="translate(-199.347 -249.577)"/>
    <g id="그룹_31" data-name="그룹 31" transform="translate(50.899 13.605)">
        <path id="패스_37" data-name="패스 37" class="cls-4" d="M255.071 263.182v1.931c0 .723.283 1.03.664 1.03.42 0 .693-.317.693-1.03v-1.931h.373v1.9c0 1-.462 1.406-1.08 1.406-.583 0-1.023-.379-1.023-1.391v-1.915z" transform="translate(-254.698 -263.182)"/>
    </g>
    <path id="패스_38" data-name="패스 38" class="cls-4" d="M262.461 263.538h-.869v-.356h2.113v.356h-.873v2.9h-.371z" transform="translate(-208.235 -249.577)"/>
    <path id="패스_39" data-name="패스 39" class="cls-4" d="M269.993 264.907h-1.105v1.173h1.236v.351h-1.608v-3.252h1.543v.353h-1.172v1.029h1.105z" transform="translate(-212.69 -249.575)"/>
    <path id="패스_40" data-name="패스 40" class="cls-4" d="M278.292 263.182h1.536v.353h-1.164v1.079h1.075v.347h-1.075v1.471h-.372z" transform="translate(-218.98 -249.577)"/>
    <g id="그룹_32" data-name="그룹 32" transform="translate(61.251 13.552)">
        <path id="패스_41" data-name="패스 41" class="cls-4" d="M285.029 266.048c.583 0 .915-.612.915-1.351 0-.646-.3-1.322-.91-1.322s-.919.651-.919 1.357c0 .684.329 1.315.91 1.315zm-.015.344c-.76 0-1.284-.666-1.284-1.65 0-1.034.557-1.708 1.319-1.708.782 0 1.286.68 1.286 1.645 0 1.115-.6 1.714-1.321 1.714z" transform="translate(-283.731 -263.034)"/>
        <path id="패스_42" data-name="패스 42" class="cls-4" d="M292.867 264.666h.379a.591.591 0 0 0 .641-.618c0-.421-.265-.6-.656-.6a1.387 1.387 0 0 0-.365.04zm-.367-1.477a3.335 3.335 0 0 1 .707-.071 1.091 1.091 0 0 1 .83.269.879.879 0 0 1 .225.618.852.852 0 0 1-.538.825v.015a.828.828 0 0 1 .418.657 6.588 6.588 0 0 0 .215.891h-.38a4.229 4.229 0 0 1-.186-.776c-.084-.45-.239-.62-.575-.632h-.349v1.408h-.367z" transform="translate(-289.373 -263.088)"/>
    </g>
    <path id="패스_43" data-name="패스 43" class="cls-4" d="M303.186 263.182v1.36h1.38v-1.36h.373v3.251h-.373v-1.524h-1.38v1.524h-.372v-3.251z" transform="translate(-234.758 -249.577)"/>
    <path id="패스_44" data-name="패스 44" class="cls-4" d="M312.148 264.907h-1.1v1.173h1.237v.351h-1.608v-3.252h1.546v.353h-1.175v1.029h1.1z" transform="translate(-239.815 -249.575)"/>
    <g id="그룹_33" data-name="그룹 33" transform="translate(72.772 13.605)">
        <path id="패스_45" data-name="패스 45" class="cls-4" d="m317.652 265.083-.283-.936c-.058-.212-.1-.4-.145-.593h-.011a8.033 8.033 0 0 1-.141.588l-.278.941zm-.935.328-.3 1.022h-.377l.967-3.251h.445l.972 3.251h-.393l-.306-1.022z" transform="translate(-316.042 -263.182)"/>
    </g>
    <path id="패스_46" data-name="패스 46" class="cls-4" d="M324.012 263.182h.372v2.9h1.22v.352h-1.592z" transform="translate(-248.398 -249.577)"/>
    <path id="패스_47" data-name="패스 47" class="cls-4" d="M328.63 263.538h-.87v-.356h2.112v.356H329v2.9h-.371z" transform="translate(-250.809 -249.577)"/>
    <path id="패스_48" data-name="패스 48" class="cls-4" d="M335.054 263.182v1.36h1.378v-1.36h.373v3.251h-.373v-1.524h-1.378v1.524h-.374v-3.251z" transform="translate(-255.262 -249.577)"/>
    <g id="그룹_34" data-name="그룹 34" transform="translate(81.954 13.605)">
        <path id="패스_49" data-name="패스 49" class="cls-4" d="M342.7 266.434v-1.38l-.905-1.872h.421l.4.9c.106.247.194.443.283.67h.007c.078-.211.179-.424.289-.67l.41-.9h.414l-.951 1.867v1.385z" transform="translate(-341.793 -263.182)"/>
    </g>
    <path id="패스_50" data-name="패스 50" class="cls-4" d="M352.9 263.182h1.537v.353h-1.167v1.079h1.076v.347h-1.076v1.471h-.37z" transform="translate(-266.985 -249.577)"/>
    <g id="그룹_35" data-name="그룹 35" transform="translate(87.477 13.605)">
        <path id="패스_51" data-name="패스 51" class="cls-4" d="m358.9 265.083-.286-.936c-.057-.212-.1-.4-.143-.593h-.013a7.533 7.533 0 0 1-.14.588l-.28.941zm-.936.328-.3 1.022h-.382l.969-3.251h.445l.972 3.251h-.394l-.3-1.022z" transform="translate(-357.281 -263.182)"/>
        <path id="패스_52" data-name="패스 52" class="cls-4" d="M367.538 265.007c-.021-.455-.047-1-.047-1.4h-.009c-.1.375-.214.787-.359 1.235l-.505 1.577h-.279l-.465-1.548c-.136-.464-.245-.88-.326-1.264h-.009c-.007.4-.03.945-.054 1.436l-.077 1.4h-.35l.2-3.252h.469l.488 1.573c.119.4.213.757.289 1.094h.007c.077-.327.178-.684.306-1.094l.506-1.573h.472l.177 3.252h-.372z" transform="translate(-362.286 -263.182)"/>
    </g>
    <path id="사각형_39" data-name="사각형 39" class="cls-4" transform="translate(93.767 13.606)" d="M0 0h.371v3.251H0z"/>
    <path id="패스_53" data-name="패스 53" class="cls-4" d="M377.872 266.434h1.591v-.352h-1.217v-2.9h-.374z" transform="translate(-283.053 -249.577)"/>
    <path id="패스_54" data-name="패스 54" class="cls-4" d="M382.653 266.434v-1.38l-.906-1.872h.422l.4.9c.106.247.2.443.284.67h.008c.077-.211.179-.424.289-.67l.41-.9h.414l-.952 1.867v1.385z" transform="translate(-285.547 -249.577)"/>
</svg>
